<!DOCTYPE svg PUBLIC "-//W3C//DTD SVG 1.1//EN" "http://www.w3.org/Graphics/SVG/1.1/DTD/svg11.dtd" [
	<!ENTITY ns_flows "http://ns.adobe.com/Flows/1.0/">
]><svg xmlns="http://www.w3.org/2000/svg" xmlns:xlink="http://www.w3.org/1999/xlink" width="413" height="39" viewBox="0 0 413 39" overflow="visible"><path fill="#FF3A4F" d="M220.908.38h1.418v37.723h-1.418z"/><defs><path id="a" d="M0 0h413.404v38.542H0z"/></defs><clipPath id="b"><use xlink:href="#a" overflow="visible"/></clipPath><path clip-path="url(#b)" fill="#082CAF" d="M59.764.445c.453-.08 1.024-.12 1.694-.12.67 0 1.22.04 1.674.12l-7.13 12.805c-.454.08-1.006.118-1.675.118s-1.24-.04-1.694-.118l2.58-4.61-4.57-8.194c.453-.08 1.024-.12 1.694-.12s1.222.04 1.675.12l2.876 5.437L59.764.445zM75.56.445c1.045-.178 2.09-.178 3.133 0V13.25c-1.044.177-2.088.177-3.132 0V8.088h-5.3v5.16c-1.043.178-2.087.178-3.13 0V.446c1.043-.178 2.087-.178 3.13 0v5.023h5.3V.445zM94.962 13.25c-1.044.177-2.088.177-3.133 0V5.745l-5.97 7.505c-.807.138-1.634.138-2.46 0V.445c1.042-.178 2.086-.178 3.13 0V7.95L92.5.445c.808-.138 1.636-.138 2.463 0V13.25zM105.144.425c1.24 0 2.246.315 3.015.946.767.63 1.16 1.44 1.16 2.424 0 1.3-.59 2.245-1.752 2.836.61.276 1.103.67 1.457 1.182.355.512.532 1.123.532 1.813 0 1.122-.394 2.01-1.18 2.66-.79.65-1.854.964-3.193.964H99.63V.444l5.514-.02zm-2.363 5.28h2.01c.414 0 .75-.118 1.005-.354.256-.236.374-.57.374-.984 0-.886-.454-1.32-1.38-1.32h-2.01v2.66zm0 4.924h2.207c.926 0 1.38-.454 1.38-1.38 0-.886-.493-1.34-1.498-1.34h-2.09v2.72zM122.537 10.63c.158.866.158 1.733 0 2.62h-8.924V.444h8.924c.158.886.158 1.753 0 2.62h-5.77v2.403h5.1c.158.887.158 1.753 0 2.62h-5.1v2.54h5.77zM131.695.445c1.438 0 2.6.393 3.487 1.18.887.79 1.34 1.833 1.34 3.114 0 1.28-.453 2.323-1.34 3.112-.887.788-2.05 1.18-3.487 1.18h-1.872v4.217c-1.044.176-2.087.176-3.13 0V.444h5.002zm-.02 5.93c.453 0 .848-.138 1.162-.414.316-.274.474-.688.474-1.24 0-.55-.157-.965-.473-1.24-.314-.276-.69-.415-1.142-.415h-1.872v3.35l1.852-.04zM147.67 10.886c1.16 0 2.402-.414 3.722-1.222.098.158.138.61.118 1.38-.02.768-.06 1.26-.138 1.477-1.063.65-2.363.986-3.9.986-2.187 0-3.94-.65-5.26-1.93-1.32-1.28-1.97-2.877-1.97-4.768s.67-3.486 1.99-4.767c1.32-1.28 3.073-1.93 5.26-1.93 1.536 0 2.836.336 3.9.985.08.217.118.71.138 1.478.02.768-.02 1.22-.118 1.38-1.32-.81-2.56-1.223-3.723-1.223-1.203 0-2.208.375-3.015 1.123-.808.75-1.202 1.734-1.202 2.975 0 1.24.394 2.226 1.202 2.975.807.748 1.812 1.122 3.014 1.122l-.02-.04zM167.74 13.25c-1.043.177-2.087.177-3.132 0V5.745l-5.97 7.505c-.806.138-1.633.138-2.46 0V.445c1.043-.178 2.087-.178 3.13 0V7.95l5.97-7.505c.808-.138 1.636-.138 2.463 0V13.25zM181.843.445c.157.886.157 1.753 0 2.62h-3.468V13.25c-1.044.177-2.088.177-3.132 0V3.065h-3.466c-.16-.887-.16-1.753 0-2.62h10.066zM194.882 10.63c.157.866.157 1.733 0 2.62h-8.924V.444h8.924c.157.886.157 1.753 0 2.62h-5.772v2.403h5.102c.157.887.157 1.753 0 2.62h-5.102v2.54h5.772zM208.474.445c.156.886.156 1.753 0 2.62h-3.468V13.25c-1.044.177-2.088.177-3.132 0V3.065h-3.466c-.16-.887-.16-1.753 0-2.62h10.066zM61.572 34.294c1.82 0 3.766-.648 5.834-1.914.154.246.216.957.186 2.16-.032 1.203-.093 1.977-.217 2.315-1.667 1.018-3.704 1.543-6.112 1.543-3.426 0-6.173-1.02-8.242-3.025-2.067-2.007-3.086-4.508-3.086-7.47s1.05-5.464 3.117-7.47c2.07-2.007 4.818-3.026 8.244-3.026 2.408 0 4.445.525 6.112 1.544.123.34.186 1.112.216 2.316.03 1.204-.03 1.914-.186 2.16-2.067-1.266-4.012-1.913-5.834-1.913-1.883 0-3.457.587-4.722 1.76-1.266 1.172-1.883 2.715-1.883 4.66 0 1.945.617 3.49 1.883 4.662 1.265 1.173 2.84 1.76 4.722 1.76l-.03-.06zM89.94 37.997c-1.637.277-3.273.277-4.91 0v-11.76l-9.353 11.76c-1.265.217-2.56.217-3.858 0V17.933c1.635-.278 3.27-.278 4.907 0v11.76l9.354-11.76c1.266-.216 2.562-.216 3.86 0v20.064zM107.41 17.933c1.636-.278 3.27-.278 4.907 0v20.064c-1.636.277-3.27.277-4.908 0V29.91h-8.305v8.087c-1.635.277-3.27.277-4.907 0V17.933c1.636-.278 3.272-.278 4.907 0v7.872h8.304v-7.872zM130.652 33.89c.247 1.36.247 2.72 0 4.106H116.67V17.933h13.982c.247 1.39.247 2.747 0 4.104h-9.044v3.767h7.995c.247 1.39.247 2.747 0 4.106h-7.995v3.98h9.044zM141.918 17.932c2.254 0 4.075.618 5.464 1.853 1.39 1.235 2.1 2.87 2.1 4.877 0 2.006-.71 3.642-2.1 4.877s-3.21 1.85-5.464 1.85h-2.932v6.606c-1.636.28-3.272.28-4.91 0V17.932h7.842zm-.03 9.292c.71 0 1.327-.216 1.82-.647.494-.433.742-1.08.742-1.945s-.248-1.512-.74-1.944c-.495-.433-1.082-.65-1.792-.65h-2.932v5.25l2.902-.064zM166.242 17.933c.247 1.39.247 2.748 0 4.104h-8.272v15.96c-1.637.277-3.273.277-4.91 0V17.933h13.182zM187.664 37.997c-1.636.277-3.27.277-4.908 0v-11.76l-9.353 11.76c-1.265.217-2.562.217-3.858 0V17.933c1.636-.278 3.27-.278 4.908 0v11.76l9.353-11.76c1.265-.216 2.562-.216 3.858 0v20.064zM207.327 37.966c-1.637.278-3.273.278-4.91 0v-6.79h-1.913l-4.414 6.79c-.71.124-1.605.186-2.685.186s-1.976-.062-2.686-.186l4.876-7.53c-1.204-.526-2.13-1.298-2.808-2.316-.68-1.02-1.02-2.19-1.02-3.52 0-1.976.68-3.58 2.038-4.815 1.358-1.235 3.18-1.852 5.433-1.852h8.117l-.03 20.033zm-8.057-15.96c-.71 0-1.297.218-1.79.648-.495.433-.74 1.05-.74 1.884s.245 1.45.74 1.883c.493.435 1.11.65 1.82.65h3.087v-5.063h-3.117zM241.72 6.364c1.818 0 3.243.466 4.3 1.424s1.572 2.138 1.572 3.563c0 1.4-.516 2.58-1.573 3.538-1.057.958-2.48 1.425-4.3 1.425h-5.92V.345h10.268c.148.712.148 1.425 0 2.137h-7.762v3.882h3.414zm.025 7.812c1.056 0 1.866-.27 2.456-.81.59-.542.886-1.23.886-2.04 0-.835-.295-1.523-.885-2.064-.59-.54-1.4-.81-2.455-.81h-3.415v5.773l3.415-.05zM258.69.05c2.458 0 4.472.81 6.045 2.432 1.572 1.62 2.358 3.586 2.358 5.92s-.786 4.3-2.358 5.92c-1.573 1.622-3.587 2.433-6.044 2.433-2.455 0-4.47-.81-6.042-2.432s-2.36-3.612-2.36-5.945c0-2.334.788-4.324 2.36-5.946C254.22.812 256.235 0 258.69 0v.05zm-4.174 3.88c-1.105 1.18-1.67 2.68-1.67 4.497s.564 3.316 1.67 4.496c1.104 1.18 2.506 1.768 4.176 1.768 1.67 0 3.07-.588 4.177-1.767 1.104-1.18 1.67-2.678 1.67-4.496s-.565-3.317-1.67-4.496-2.507-1.768-4.178-1.768c-1.67 0-3.072.59-4.176 1.77M283.647 16.362c-.86.172-1.695.172-2.506 0V2.507h-5.895l-.958 9.384c-.172 1.622-.59 2.826-1.278 3.637-.688.81-1.672 1.204-2.948 1.204-.49 0-.908-.05-1.277-.17-.148-.714-.148-1.426 0-2.138.22.048.418.073.614.073.687 0 1.227-.22 1.62-.663.394-.442.64-1.18.736-2.187L272.936.37h10.688l.023 15.992zM293.444 5.946c1.842 0 3.292.49 4.348 1.474 1.057.982 1.598 2.235 1.598 3.734 0 1.498-.517 2.727-1.572 3.71-1.057.982-2.506 1.473-4.35 1.473h-5.87V.37c.858-.173 1.694-.173 2.506 0v5.576h3.34zm.025 8.254c1.056 0 1.89-.295 2.48-.86.59-.565.884-1.302.884-2.21 0-.91-.295-1.647-.885-2.212-.59-.565-1.425-.86-2.48-.86h-3.366v6.166l3.365-.024zM320.44.37c.834-.173 1.67-.173 2.528 0v15.967h-20.144V.37c.858-.173 1.695-.173 2.506 0v13.854h6.313V.37c.81-.173 1.646-.173 2.506 0v13.854h6.288V.37zM337.85 14.15c.173.713.173 1.426 0 2.138h-10.857V.32h10.858c.173.712.173 1.425 0 2.137h-8.353v4.668h7.59c.15.713.15 1.425 0 2.137h-7.59v4.963l8.354-.074zM355.927.418c.858-.172 1.694-.172 2.53 0v15.97c-.836.17-1.672.17-2.53 0V9.163c-.442.467-1.105.884-1.966 1.253-.858.368-1.792.565-2.774.565-1.622 0-2.875-.49-3.76-1.45-.885-.958-1.326-2.235-1.326-3.807V.395c.86-.173 1.695-.173 2.506 0V5.38c0 2.31 1.13 3.465 3.39 3.465.86 0 1.646-.172 2.36-.54.71-.37 1.252-.762 1.62-1.18l-.05-6.707zM373.39 14.15c.172.713.172 1.426 0 2.138h-10.858V.32h10.858c.172.712.172 1.425 0 2.137h-8.354v4.668h7.59c.15.713.15 1.425 0 2.137h-7.59v4.963l8.354-.074zM395.74 16.337c-.81.172-1.62.172-2.433 0l-2.58-11.522-4.126 11.522c-.687.147-1.375.147-2.06 0l-4.13-11.522-2.578 11.522c-.812.172-1.62.172-2.434 0L379.133.37c.712-.15 1.424-.15 2.137 0l4.324 12.036L389.918.37c.712-.15 1.425-.15 2.136 0l3.687 15.967zM243.587 21.836c2.457 0 4.47.812 6.044 2.434 1.573 1.62 2.36 3.587 2.36 5.92s-.787 4.3-2.36 5.92c-1.572 1.622-3.586 2.432-6.043 2.432-2.456 0-4.47-.81-6.043-2.43s-2.36-3.613-2.36-5.947.788-4.323 2.36-5.944 3.587-2.432 6.043-2.432v.048zm-4.176 3.883c-1.104 1.178-1.67 2.677-1.67 4.493 0 1.818.565 3.317 1.67 4.496 1.105 1.18 2.507 1.77 4.177 1.77 1.67 0 3.07-.59 4.177-1.77 1.105-1.18 1.67-2.68 1.67-4.497 0-1.816-.564-3.315-1.67-4.494-1.105-1.18-2.506-1.77-4.177-1.77-1.67 0-3.07.59-4.176 1.77M261.344 28.15c1.818 0 3.243.467 4.3 1.424 1.057.96 1.572 2.138 1.572 3.563 0 1.4-.516 2.58-1.573 3.538-1.056.958-2.48 1.425-4.3 1.425h-5.92V22.132h10.27c.147.713.147 1.426 0 2.138h-7.763v3.882h3.414zm.025 7.814c1.055 0 1.864-.27 2.455-.812.59-.54.885-1.227.885-2.04 0-.834-.295-1.52-.885-2.06-.59-.542-1.4-.813-2.456-.813h-3.416v5.773l3.415-.05zM276.375 22.156c1.842 0 3.292.49 4.348 1.474 1.057.982 1.598 2.235 1.598 3.76 0 1.498-.516 2.75-1.57 3.733-1.058.983-2.507 1.475-4.35 1.475h-3.365v5.526c-.812.172-1.647.172-2.506 0V22.156h5.845zm.024 8.352c1.056 0 1.89-.295 2.48-.858.59-.565.884-1.327.884-2.26 0-.935-.295-1.695-.885-2.26-.59-.566-1.425-.86-2.48-.86h-3.366v6.238h3.365zM298.407 38.124c-.86.172-1.72.172-2.58 0l-1.62-4.005h-6.954l-1.596 4.004c-.86.172-1.72.172-2.58 0l6.633-15.968c.688-.148 1.4-.148 2.113 0l6.584 15.968zm-5.01-6.117l-2.68-6.633-2.677 6.633h5.356zM309.36 29.847c.934.317 1.646.834 2.138 1.547.49.713.736 1.522.736 2.457 0 1.426-.54 2.556-1.62 3.392-1.082.834-2.507 1.25-4.25 1.25-2.04 0-3.76-.465-5.16-1.4-.073-.17-.123-.562-.123-1.178 0-.614.05-1.006.147-1.155 1.55 1.105 3.243 1.646 5.062 1.646.98 0 1.816-.247 2.478-.737.664-.493 1.01-1.18 1.01-2.064 0-.763-.247-1.375-.738-1.867-.49-.494-1.228-.74-2.21-.74h-2.654c-.17-.664-.17-1.326 0-1.99h2.605c.787 0 1.426-.245 1.893-.713.466-.467.71-1.08.71-1.816 0-.762-.268-1.375-.81-1.866-.54-.492-1.276-.738-2.21-.738-1.67 0-3.292.54-4.864 1.62-.1-.12-.15-.49-.15-1.103s.052-1.007.124-1.18c1.376-.933 3.046-1.398 4.988-1.398 1.646 0 2.947.392 3.906 1.203.958.81 1.45 1.842 1.45 3.096 0 .86-.224 1.62-.664 2.284-.442.663-1.032 1.154-1.77 1.473l-.024-.023zM323.064 21.836c2.457 0 4.47.812 6.044 2.434 1.572 1.62 2.358 3.587 2.358 5.92s-.786 4.3-2.358 5.92c-1.573 1.622-3.587 2.432-6.044 2.432-2.456 0-4.47-.81-6.043-2.43s-2.358-3.613-2.358-5.947.787-4.323 2.36-5.944 3.586-2.432 6.042-2.432v.048zm-4.175 3.883c-1.106 1.178-1.672 2.677-1.672 4.493 0 1.818.565 3.317 1.67 4.496 1.105 1.18 2.507 1.77 4.177 1.77 1.67 0 3.07-.59 4.177-1.77 1.105-1.18 1.67-2.68 1.67-4.497 0-1.816-.564-3.315-1.67-4.494-1.105-1.18-2.506-1.77-4.177-1.77-1.67 0-3.072.59-4.176 1.77M341.386 22.18c1.473 0 2.677.37 3.61 1.132.935.76 1.4 1.744 1.4 2.946 0 .837-.195 1.572-.613 2.188-.418.613-.982 1.08-1.72 1.4.91.317 1.597.81 2.087 1.473.492.663.738 1.45.738 2.358 0 1.35-.492 2.432-1.474 3.24-.983.813-2.31 1.205-4.005 1.205h-6.512V22.156l6.488.025zm-3.955 13.905h3.857c.96 0 1.72-.245 2.26-.712.54-.467.81-1.104.81-1.916 0-.76-.245-1.377-.76-1.844-.516-.466-1.253-.687-2.236-.687h-3.904l-.025 5.16zm.025-6.952h3.856c.813 0 1.45-.22 1.917-.663.467-.44.712-1.03.712-1.77 0-.76-.246-1.35-.762-1.768s-1.18-.64-2.014-.64h-3.71v4.84zM364.058 38.124c-.86.172-1.72.172-2.58 0l-1.62-4.005h-6.954l-1.596 4.004c-.86.172-1.72.172-2.58 0l6.633-15.968c.69-.148 1.402-.148 2.114 0l6.584 15.968zm-5.012-6.117l-2.68-6.633-2.676 6.633h5.356zM378.253 22.156c.81-.172 1.646-.172 2.505 0v15.97c-.86.17-1.694.17-2.505 0V31.05h-8.77v7.075c-.81.172-1.647.172-2.506 0v-15.97c.86-.17 1.695-.17 2.505 0v6.78h8.77v-6.78zM398.467 38.124c-.812.173-1.646.173-2.506 0V26.356l-9.236 11.768c-.663.123-1.326.123-1.99 0V22.156c.86-.172 1.695-.172 2.505 0v11.77l9.26-11.77c.664-.147 1.328-.147 1.99 0l-.023 15.968zM413.275 35.938c.172.713.172 1.425 0 2.137h-10.858V22.107h10.858c.172.712.172 1.425 0 2.138h-8.354v4.668h7.592c.148.712.148 1.423 0 2.136h-7.59v4.962l8.353-.074z"/><path clip-path="url(#b)" fill="#FF3A4F" d="M0 38.128h37.77V.358H0v37.77zm33.05-4.723H4.722V5.078H33.05v28.327zm-9.592-1.62L10.916 19.243 23.458 6.698v6.677l-5.867 5.867 5.868 5.867v6.676z"/></svg>