<svg width="414" height="39" viewBox="0 0 414 39" fill="none" xmlns="http://www.w3.org/2000/svg">
<path d="M222.3 0.399994H220.9V38.1H222.3V0.399994Z" fill="#ED1C24"/>
<path d="M56.9 5.9L59.8 0.500003C60.3 0.400003 60.8 0.400003 61.5 0.400003C62.2 0.400003 62.7 0.400003 63.2 0.500003L56 13.2C55.5 13.3 55 13.3 54.3 13.3C53.6 13.3 53.1 13.3 52.6 13.2L55.2 8.6L50.6 0.400003C51.1 0.300003 51.6 0.300003 52.3 0.300003C53 0.300003 53.5 0.300003 54 0.400003L56.9 5.9Z" fill="#FFFFFF"/>
<path d="M75.6 5.5V0.5C76.6 0.3 77.7 0.3 78.8 0.5V13.3C77.8 13.5 76.7 13.5 75.6 13.3V8.1H70.3V13.3C69.3 13.5 68.2 13.5 67.1 13.3V0.4C68.1 0.2 69.2 0.2 70.3 0.4V5.4H75.6V5.5Z" fill="#FFFFFF"/>
<path d="M95 13.2C94 13.4 92.9 13.4 91.8 13.2V5.7L85.8 13.2C85 13.3 84.2 13.3 83.3 13.2V0.4C84.3 0.2 85.4 0.2 86.5 0.4V8L92.5 0.5C93.3 0.4 94.1 0.4 95 0.5V13.2Z" fill="#FFFFFF"/>
<path d="M99.6 0.399994H105.1C106.3 0.399994 107.3 0.699994 108.1 1.29999C108.9 1.89999 109.3 2.69999 109.3 3.69999C109.3 4.99999 108.7 5.89999 107.5 6.49999C108.7 7.09999 109.5 8.09999 109.5 9.49999C109.5 11.8 107.8 13.1 105.1 13.1H99.5V0.399994H99.6ZM102.8 3.09999V5.69999H104.8C105.6 5.69999 106.2 5.19999 106.2 4.39999C106.2 3.49999 105.7 3.09999 104.8 3.09999H102.8ZM102.8 7.89999V10.6H105C105.9 10.6 106.4 10.1 106.4 9.19999C106.4 8.29999 105.9 7.89999 104.9 7.89999H102.8Z" fill="#FFFFFF"/>
<path d="M116.8 10.6H122.6C122.8 11.5 122.8 12.3 122.6 13.2H113.7V0.399994H122.6C122.8 1.29999 122.8 2.19999 122.6 2.99999H116.8V5.39999H121.9C122.1 6.29999 122.1 7.19999 121.9 7.99999H116.8V10.6Z" fill="#FFFFFF"/>
<path d="M126.7 0.399994H131.7C133.1 0.399994 134.3 0.799994 135.2 1.59999C136.1 2.39999 136.5 3.39999 136.5 4.69999C136.5 5.99999 136 6.99999 135.2 7.79999C134.3 8.59999 133.2 8.99999 131.7 8.99999H129.8V13.2C128.8 13.4 127.7 13.4 126.6 13.2V0.399994H126.7ZM129.8 6.39999H131.7C132.6 6.39999 133.3 5.79999 133.3 4.69999C133.3 3.59999 132.6 2.99999 131.7 2.99999H129.8V6.39999Z" fill="#FFFFFF"/>
<path d="M151.4 9.7C151.5 9.9 151.6 10.3 151.5 11.1C151.5 11.9 151.4 12.4 151.4 12.6C150.3 13.3 149 13.6 147.5 13.6C145.3 13.6 143.6 13 142.2 11.7C140.9 10.4 140.2 8.8 140.2 6.9C140.2 5 140.9 3.4 142.2 2.1C143.5 0.799997 145.3 0.199997 147.5 0.199997C149 0.199997 150.3 0.499997 151.4 1.2C151.5 1.4 151.5 1.9 151.5 2.7C151.5 3.5 151.5 3.9 151.4 4.1C150.1 3.3 148.8 2.9 147.7 2.9C146.5 2.9 145.5 3.3 144.7 4C143.9 4.7 143.5 5.7 143.5 7C143.5 8.2 143.9 9.2 144.7 10C145.5 10.7 146.5 11.1 147.7 11.1C148.9 10.9 150.1 10.5 151.4 9.7Z" fill="#FFFFFF"/>
<path d="M167.7 13.2C166.7 13.4 165.6 13.4 164.5 13.2V5.7L158.5 13.2C157.7 13.3 156.9 13.3 156 13.2V0.4C157 0.2 158.1 0.2 159.2 0.4V8L165.2 0.5C166 0.4 166.8 0.4 167.7 0.5V13.2Z" fill="#FFFFFF"/>
<path d="M181.9 0.399994C182.1 1.29999 182.1 2.19999 181.9 2.99999H178.4V13.2C177.4 13.4 176.3 13.4 175.2 13.2V3.09999H171.7C171.5 2.19999 171.5 1.29999 171.7 0.499994H181.9V0.399994Z" fill="#FFFFFF"/>
<path d="M189.1 10.6H194.9C195.1 11.5 195.1 12.3 194.9 13.2H186V0.399994H194.9C195.1 1.29999 195.1 2.19999 194.9 2.99999H189.1V5.39999H194.2C194.4 6.29999 194.4 7.19999 194.2 7.99999H189.1V10.6Z" fill="#FFFFFF"/>
<path d="M208.5 0.399994C208.7 1.29999 208.7 2.19999 208.5 2.99999H205V13.2C204 13.4 202.9 13.4 201.8 13.2V3.09999H198.3C198.1 2.19999 198.1 1.29999 198.3 0.499994H208.5V0.399994Z" fill="#FFFFFF"/>
<path d="M67.4 32.4C67.6 32.6 67.6 33.4 67.6 34.6C67.6 35.8 67.5 36.6 67.4 36.9C65.7 37.9 63.7 38.4 61.3 38.4C57.9 38.4 55.1 37.4 53.1 35.4C51 33.4 50 30.9 50 28C50 25 51 22.5 53.1 20.5C55.2 18.5 57.9 17.5 61.3 17.5C63.7 17.5 65.7 18 67.4 19C67.5 19.3 67.6 20.1 67.6 21.3C67.6 22.5 67.5 23.2 67.4 23.5C65.3 22.2 63.4 21.6 61.6 21.6C59.7 21.6 58.2 22.2 56.9 23.4C55.6 24.5 55 26 55 28C55 29.9 55.6 31.5 56.9 32.7C58.2 33.8 59.7 34.4 61.6 34.4C63.4 34.4 65.4 33.7 67.4 32.4Z" fill="#FFFFFF"/>
<path d="M89.9 38C88.3 38.3 86.6 38.3 85 38V26.2L75.6 38C74.3 38.2 73 38.2 71.7 38V17.9C73.3 17.6 75 17.6 76.6 17.9V29.7L86 17.9C87.3 17.7 88.6 17.7 89.9 17.9V38Z" fill="#FFFFFF"/>
<path d="M107.4 25.8V17.9C109 17.6 110.7 17.6 112.3 17.9V38C110.7 38.3 109 38.3 107.4 38V29.9H99.1V38C97.5 38.3 95.8 38.3 94.2 38V17.9C95.8 17.6 97.5 17.6 99.1 17.9V25.8H107.4Z" fill="#FFFFFF"/>
<path d="M121.6 33.9H130.6C130.8 35.3 130.8 36.6 130.6 38H116.6V17.9H130.6C130.8 19.3 130.8 20.6 130.6 22H121.6V25.8H129.6C129.8 27.2 129.8 28.5 129.6 29.9H121.6V33.9Z" fill="#FFFFFF"/>
<path d="M134.1 17.9H142C144.3 17.9 146.1 18.5 147.5 19.8C148.9 21 149.6 22.7 149.6 24.7C149.6 26.7 148.9 28.3 147.5 29.6C146.1 30.8 144.3 31.5 142 31.5H139V38C137.4 38.3 135.7 38.3 134.1 38V17.9ZM139 27.3H141.9C143.4 27.3 144.4 26.4 144.4 24.7C144.4 23 143.3 22.1 141.9 22.1H139V27.3Z" fill="#FFFFFF"/>
<path d="M153.1 17.9H166.3C166.5 19.3 166.5 20.6 166.3 22H158V38C156.4 38.3 154.7 38.3 153.1 38V17.9Z" fill="#FFFFFF"/>
<path d="M187.7 38C186.1 38.3 184.4 38.3 182.8 38V26.2L173.4 38C172.1 38.2 170.8 38.2 169.5 38V17.9C171.1 17.6 172.8 17.6 174.4 17.9V29.7L183.8 17.9C185.1 17.7 186.4 17.7 187.7 17.9V38Z" fill="#FFFFFF"/>
<path d="M207.4 17.9V38C205.8 38.3 204.1 38.3 202.5 38V31.2H200.6L196.2 38C195.5 38.1 194.6 38.2 193.5 38.2C192.4 38.2 191.6 38.1 190.8 38L195.7 30.5C193.3 29.4 191.9 27.3 191.9 24.6C191.9 22.6 192.6 21 193.9 19.8C195.3 18.6 197.1 17.9 199.3 17.9H207.4ZM202.4 22H199.3C197.8 22 196.8 22.9 196.8 24.5C196.8 26.1 197.9 27 199.3 27H202.4V22Z" fill="#FFFFFF"/>
<path d="M238.3 6.39999H241.7C243.5 6.39999 244.9 6.89999 246 7.79999C247.1 8.79999 247.6 9.89999 247.6 11.4C247.6 12.8 247.1 14 246 15C244.9 16 243.5 16.4 241.7 16.4H235.8V0.399994H246.1C246.2 1.09999 246.2 1.79999 246.1 2.49999H238.3V6.39999ZM238.3 14.2H241.7C243.8 14.2 245 13 245 11.3C245 9.59999 243.8 8.39999 241.7 8.39999H238.3V14.2Z" fill="#FFFFFF"/>
<path d="M258.7 0C261.2 0 263.2 0.8 264.7 2.4C266.3 4 267.1 6 267.1 8.3C267.1 10.6 266.3 12.6 264.7 14.2C263.1 15.8 261.1 16.6 258.7 16.6C256.2 16.6 254.2 15.8 252.7 14.2C251.1 12.6 250.3 10.6 250.3 8.3C250.3 6 251.1 4 252.7 2.4C254.2 0.8 256.2 0 258.7 0ZM258.7 2.1C257 2.1 255.6 2.7 254.5 3.9C253.4 5.1 252.8 6.6 252.8 8.4C252.8 10.2 253.4 11.7 254.5 12.9C255.6 14.1 257 14.6 258.7 14.6C260.4 14.6 261.8 14 262.9 12.9C264 11.7 264.6 10.2 264.6 8.4C264.6 6.6 264 5.1 262.9 3.9C261.8 2.7 260.4 2.1 258.7 2.1Z" fill="#FFFFFF"/>
<path d="M283.6 0.399994V16.4C282.7 16.6 281.9 16.6 281.1 16.4V2.49999H275.2L274.2 11.9C273.9 15.1 272.6 16.7 270 16.7C269.5 16.7 269.1 16.7 268.7 16.5C268.6 15.8 268.6 15.1 268.7 14.4C268.9 14.4 269.1 14.5 269.3 14.5C270.7 14.5 271.5 13.7 271.7 11.7L272.9 0.399994H283.6Z" fill="#FFFFFF"/>
<path d="M290.1 5.9H293.5C295.3 5.9 296.8 6.4 297.8 7.4C298.9 8.4 299.4 9.6 299.4 11.1C299.4 12.6 298.9 13.9 297.8 14.8C296.7 15.8 295.3 16.2 293.5 16.2H287.6V0.200003C288.5 3.05474e-06 289.3 3.05474e-06 290.1 0.200003V5.9ZM290.1 14.2H293.5C295.6 14.2 296.9 13 296.9 11.1C296.9 9.2 295.7 8 293.5 8H290.1V14.2Z" fill="#FFFFFF"/>
<path d="M320.4 14.2V0.4C321.2 0.2 322.1 0.2 322.9 0.4V16.4H302.8V0.4C303.7 0.2 304.5 0.2 305.3 0.4V14.3H311.6V0.4C312.4 0.2 313.2 0.2 314.1 0.4V14.3H320.4V14.2Z" fill="#FFFFFF"/>
<path d="M329.5 14.2H337.9C338.1 14.9 338.1 15.6 337.9 16.3H327V0.300003H337.9C338.1 1 338.1 1.7 337.9 2.4H329.5V7.1H337.1C337.2 7.8 337.2 8.5 337.1 9.2H329.5V14.2Z" fill="#FFFFFF"/>
<path d="M356 0.4C356.9 0.2 357.7 0.2 358.5 0.4V16.4C357.7 16.6 356.8 16.6 356 16.4V9.1C355.1 10 353.2 10.9 351.3 10.9C348.1 10.9 346.2 8.8 346.2 5.7V0.4C347.1 0.2 347.9 0.2 348.7 0.4V5.4C348.7 7.7 349.8 8.9 352.1 8.9C353.8 8.9 355.3 8 356 7.2V0.4Z" fill="#FFFFFF"/>
<path d="M365 14.2H373.4C373.6 14.9 373.6 15.6 373.4 16.3H362.5V0.300003H373.4C373.6 1 373.6 1.7 373.4 2.4H365V7.1H372.6C372.7 7.8 372.7 8.5 372.6 9.2H365V14.2Z" fill="#FFFFFF"/>
<path d="M395.8 16.3C395 16.5 394.2 16.5 393.3 16.3L390.7 4.80001L386.6 16.3C385.9 16.4 385.2 16.4 384.5 16.3L380.4 4.80001L377.8 16.3C377 16.5 376.2 16.5 375.3 16.3L379 0.300006C379.7 0.200006 380.4 0.200006 381.1 0.300006L385.4 12.3L389.7 0.300006C390.4 0.200006 391.1 0.200006 391.8 0.300006L395.8 16.3Z" fill="#FFFFFF"/>
<path d="M243.6 21.8C246.1 21.8 248.1 22.6 249.6 24.2C251.2 25.8 252 27.8 252 30.1C252 32.4 251.2 34.4 249.6 36C248 37.6 246 38.4 243.6 38.4C241.1 38.4 239.1 37.6 237.6 36C236 34.4 235.2 32.4 235.2 30.1C235.2 27.8 236 25.8 237.6 24.2C239.1 22.6 241.1 21.8 243.6 21.8ZM243.6 23.9C241.9 23.9 240.5 24.5 239.4 25.7C238.3 26.9 237.7 28.4 237.7 30.2C237.7 32 238.3 33.5 239.4 34.7C240.5 35.9 241.9 36.4 243.6 36.4C245.3 36.4 246.7 35.8 247.8 34.7C248.9 33.5 249.5 32 249.5 30.2C249.5 28.4 248.9 26.9 247.8 25.7C246.7 24.5 245.3 23.9 243.6 23.9Z" fill="#FFFFFF"/>
<path d="M257.9 28.1H261.3C263.1 28.1 264.5 28.6 265.6 29.5C266.7 30.5 267.2 31.6 267.2 33.1C267.2 34.5 266.7 35.7 265.6 36.7C264.5 37.7 263.1 38.1 261.3 38.1H255.4V22.1H265.7C265.8 22.8 265.8 23.5 265.7 24.2H257.9V28.1ZM258 36H261.4C263.5 36 264.7 34.8 264.7 33.1C264.7 31.4 263.5 30.2 261.4 30.2H258V36Z" fill="#FFFFFF"/>
<path d="M270.5 22.2H276.4C278.2 22.2 279.7 22.7 280.7 23.7C281.8 24.7 282.3 25.9 282.3 27.5C282.3 29 281.8 30.3 280.7 31.2C279.6 32.2 278.2 32.7 276.4 32.7H273V38.2C272.2 38.4 271.4 38.4 270.5 38.2V22.2ZM273.1 30.5H276.5C278.6 30.5 279.9 29.2 279.9 27.4C279.9 25.5 278.7 24.3 276.5 24.3H273.1V30.5Z" fill="#FFFFFF"/>
<path d="M298.5 38.1C297.6 38.3 296.8 38.3 295.9 38.1L294.3 34.1H287.3L285.7 38.1C284.8 38.3 284 38.3 283.1 38.1L289.7 22.1C290.4 22 291.1 22 291.8 22.1L298.5 38.1ZM288.1 32H293.5L290.8 25.4L288.1 32Z" fill="#FFFFFF"/>
<path d="M312.3 33.9C312.3 35.3 311.8 36.5 310.7 37.3C309.6 38.1 308.2 38.6 306.4 38.6C304.4 38.6 302.6 38.1 301.2 37.2C301.1 37 301.1 36.6 301.1 36C301.1 35.4 301.1 35 301.2 34.8C302.7 35.9 304.4 36.4 306.3 36.4C308.3 36.4 309.8 35.3 309.8 33.6C309.8 32.1 308.8 31 306.8 31H304.1C303.9 30.3 303.9 29.7 304.1 29H306.7C308.3 29 309.3 27.9 309.3 26.5C309.3 25 308.2 23.9 306.3 23.9C304.6 23.9 303 24.4 301.4 25.5C301.3 25.4 301.3 25 301.3 24.4C301.3 23.8 301.4 23.4 301.4 23.2C302.8 22.3 304.4 21.8 306.4 21.8C308 21.8 309.4 22.2 310.3 23C311.3 23.8 311.8 24.8 311.8 26.1C311.8 27.8 310.9 29.2 309.4 29.9C311.3 30.5 312.3 32 312.3 33.9Z" fill="#FFFFFF"/>
<path d="M323.1 21.8C325.6 21.8 327.6 22.6 329.1 24.2C330.7 25.8 331.5 27.8 331.5 30.1C331.5 32.4 330.7 34.4 329.1 36C327.5 37.6 325.5 38.4 323.1 38.4C320.6 38.4 318.6 37.6 317.1 36C315.5 34.4 314.7 32.4 314.7 30.1C314.7 27.8 315.5 25.8 317.1 24.2C318.6 22.6 320.6 21.8 323.1 21.8ZM323.1 23.9C321.4 23.9 320 24.5 318.9 25.7C317.8 26.9 317.2 28.4 317.2 30.2C317.2 32 317.8 33.5 318.9 34.7C320 35.9 321.4 36.4 323.1 36.4C324.8 36.4 326.2 35.8 327.3 34.7C328.4 33.5 329 32 329 30.2C329 28.4 328.4 26.9 327.3 25.7C326.1 24.5 324.7 23.9 323.1 23.9Z" fill="#FFFFFF"/>
<path d="M334.9 22.2H341.4C342.9 22.2 344.1 22.6 345 23.4C346 24.2 346.4 25.1 346.4 26.3C346.4 28 345.5 29.3 344 29.9C345.8 30.5 346.8 31.9 346.8 33.7C346.8 36.4 344.7 38.1 341.3 38.1H334.8V22.2H334.9ZM337.4 24.3V29.1H341.3C342.9 29.1 343.9 28.2 343.9 26.7C343.9 25.2 342.8 24.3 341.1 24.3H337.4ZM337.4 30.9V36H341.3C343.2 36 344.3 35 344.3 33.4C344.3 31.9 343.3 30.9 341.3 30.9H337.4Z" fill="#FFFFFF"/>
<path d="M364.1 38.1C363.2 38.3 362.4 38.3 361.5 38.1L359.9 34.1H352.9L351.3 38.1C350.4 38.3 349.6 38.3 348.7 38.1L355.3 22.1C356 22 356.7 22 357.4 22.1L364.1 38.1ZM353.7 32H359.1L356.4 25.4L353.7 32Z" fill="#FFFFFF"/>
<path d="M378.3 28.9V22.1C379.1 21.9 379.9 21.9 380.8 22.1V38.1C379.9 38.3 379.1 38.3 378.3 38.1V31H369.5V38.1C368.7 38.3 367.9 38.3 367 38.1V22.1C367.9 21.9 368.7 21.9 369.5 22.1V28.9H378.3Z" fill="#FFFFFF"/>
<path d="M398.5 38.1C397.7 38.3 396.9 38.3 396 38.1V26.4L386.8 38.2C386.1 38.3 385.4 38.3 384.8 38.2V22.2C385.7 22 386.5 22 387.3 22.2V34L396.6 22.2C397.3 22.1 397.9 22.1 398.6 22.2V38.1H398.5Z" fill="#FFFFFF"/>
<path d="M404.9 36H413.3C413.5 36.7 413.5 37.4 413.3 38.1H402.4V22.1H413.3C413.5 22.8 413.5 23.5 413.3 24.2H404.9V28.9H412.5C412.6 29.6 412.6 30.3 412.5 31H404.9V36Z" fill="#FFFFFF"/>
<path d="M0 0.399994V38.2H37.8V0.399994H0ZM33 33.4H4.7V5.09999H33V33.4ZM23.5 31.8L10.9 19.2L23.5 6.69999V13.4L17.6 19.3L23.5 25.2V31.8Z" fill="#ED1C24"/>
</svg>
